<?xml version="1.0" encoding="UTF-8" standalone="no"?>
<!-- Created with Inkscape (http://www.inkscape.org/) -->

<svg
   xmlns:dc="http://purl.org/dc/elements/1.1/"
   xmlns:cc="http://creativecommons.org/ns#"
   xmlns:rdf="http://www.w3.org/1999/02/22-rdf-syntax-ns#"
   xmlns:svg="http://www.w3.org/2000/svg"
   xmlns="http://www.w3.org/2000/svg"
   xmlns:sodipodi="http://sodipodi.sourceforge.net/DTD/sodipodi-0.dtd"
   xmlns:inkscape="http://www.inkscape.org/namespaces/inkscape"
   width="744.09448819"
   height="1052.3622047"
   id="svg2"
   version="1.1"
   inkscape:version="0.48.2 r9819"
   sodipodi:docname="level2.svg">
  <defs
     id="defs4" />
  <sodipodi:namedview
     id="base"
     pagecolor="#000000"
     bordercolor="#666666"
     borderopacity="1.0"
     inkscape:pageopacity="0"
     inkscape:pageshadow="2"
     inkscape:zoom="1.2432572"
     inkscape:cx="-73.953715"
     inkscape:cy="1265.3385"
     inkscape:document-units="px"
     inkscape:current-layer="layer1"
     showgrid="false"
     inkscape:window-width="1600"
     inkscape:window-height="844"
     inkscape:window-x="0"
     inkscape:window-y="26"
     inkscape:window-maximized="1" />
  <metadata
     id="metadata7">
    <rdf:RDF>
      <cc:Work
         rdf:about="">
        <dc:format>image/svg+xml</dc:format>
        <dc:type
           rdf:resource="http://purl.org/dc/dcmitype/StillImage" />
        <dc:title />
      </cc:Work>
    </rdf:RDF>
  </metadata>
  <g
     inkscape:label="Layer 1"
     inkscape:groupmode="layer"
     id="layer1">
    <path
       style="fill:none;stroke:#d45500;stroke-width:0.74434358px;stroke-linecap:butt;stroke-linejoin:miter;stroke-opacity:1"
       d="m 214.86621,-380.29089 16.21706,114.61022 -3.92001,119.99346 -115.64014,23.07566 25.48003,-115.37833 -60.760076,-80.76482 -127.400161,66.91942 -25.480028,-55.38158 -90.160115,-4.61514 -56.84007,106.14805 25.48004,57.68917 -141.12019,-23.07567 -19.60002,108.455626 129.36016,62.30428866 L -125.80289,118.91482 -5.7455835,70.947605 148.59745,125.83752 l 164.80592,-271.52473 44.31998,-203.17511 -36.17158,-122.44302 -97.14285,-137.14286 -414.28572,11.42857 -128.57143,-74.28571 102.85715,-100 159.999995,-5.71429 25.714286,77.14286 168.571429,2.85714 31.42857,-77.14285 91.42857,0 108.57143,-151.42857 -22.85714,-137.14285 -100,-51.4286 -288.571431,5.7143 -357.142859,71.4286 -31.42857,119.99997 20,28.57143 54.28572,-28.57143 22.85714,-37.14285 48.57143,0 17.14286,20 2.85714,42.85714 -34.28572,57.14286 -111.42857,88.57143 -25.71428,65.71428 -22.85715,165.71429 71.42858,288.57143 125.71428,2.85714 57.14286,-122.85714 171.428568,2.85714 22.8571428,22.85714 102.8571472,-37.14286 z"
       id="path3002"
       inkscape:connector-curvature="0"
       sodipodi:nodetypes="ccccccccccccccccccc" />
    <path
       style="fill:none;stroke:#008000;stroke-width:1px;stroke-linecap:butt;stroke-linejoin:miter;stroke-opacity:1"
       d="m -157.05195,-198.74763 20.16207,25.46788 38.201829,-1.06116 18.039751,-24.40672 z"
       id="path2985"
       inkscape:connector-curvature="0" />
    <text
       xml:space="preserve"
       style="font-size:15.19573402px;font-style:normal;font-weight:normal;line-height:125%;letter-spacing:0px;word-spacing:0px;fill:#000000;fill-opacity:1;stroke:none;font-family:Sans"
       x="-123.40564"
       y="-216.77481"
       id="text2987"
       sodipodi:linespacing="125%"><tspan
         sodipodi:role="line"
         id="tspan2989"
         x="-123.40564"
         y="-216.77481">pickup</tspan></text>
    <text
       xml:space="preserve"
       style="font-size:15.19573402px;font-style:normal;font-weight:normal;line-height:125%;letter-spacing:0px;word-spacing:0px;fill:#000000;fill-opacity:1;stroke:none;font-family:Sans"
       x="-306.23611"
       y="-984.60284"
       id="text2987-4"
       sodipodi:linespacing="125%"><tspan
         sodipodi:role="line"
         id="tspan2989-1"
         x="-306.23611"
         y="-984.60284">pickup</tspan></text>
    <text
       xml:space="preserve"
       style="font-size:15.19573402px;font-style:normal;font-weight:normal;line-height:125%;letter-spacing:0px;word-spacing:0px;fill:#000000;fill-opacity:1;stroke:none;font-family:Sans"
       x="54.32317"
       y="-726.49213"
       id="text2987-8"
       sodipodi:linespacing="125%"><tspan
         sodipodi:role="line"
         id="tspan2989-8"
         x="54.32317"
         y="-726.49213">pickup</tspan></text>
    <text
       xml:space="preserve"
       style="font-size:15.19573402px;font-style:normal;font-weight:normal;line-height:125%;letter-spacing:0px;word-spacing:0px;fill:#000000;fill-opacity:1;stroke:none;font-family:Sans"
       x="57.565586"
       y="-926.75714"
       id="text2987-8-9"
       sodipodi:linespacing="125%"><tspan
         sodipodi:role="line"
         x="57.565586"
         y="-926.75714"
         id="tspan3011">enemy</tspan></text>
    <path
       style="fill:none;stroke:#00ffff;stroke-width:1px;stroke-linecap:butt;stroke-linejoin:miter;stroke-opacity:1"
       d="m 6.3669709,71.848635 0,-32.89601 24.4067231,0 0,-8.4893 -61.547387,0 0,7.42813 26.5290457,0 1.0611618,30.7737 z"
       id="path2992"
       inkscape:connector-curvature="0">
      <desc
         id="desc3093">landingzone</desc>
    </path>
    <text
       xml:space="preserve"
       style="font-size:15.19573402px;font-style:normal;font-weight:normal;line-height:125%;letter-spacing:0px;word-spacing:0px;fill:#000000;fill-opacity:1;stroke:none;font-family:Sans"
       x="1.3240098"
       y="25.105045"
       id="text2987-0"
       sodipodi:linespacing="125%"><tspan
         sodipodi:role="line"
         id="tspan2989-9"
         x="1.3240098"
         y="25.105045">home</tspan></text>
    <path
       style="fill:none;stroke:#ff0000;stroke-width:1;stroke-linecap:butt;stroke-linejoin:miter;stroke-opacity:1;stroke-miterlimit:4;stroke-dasharray:6,6;stroke-dashoffset:0"
       d="m 56.241578,-909.72607 -180.397518,64.73087 -217.53817,117.78897 -13.79511,129.46174 198.43727,145.37918 154.9296263,-38.20183 200.5595937,15.91743 84.89294,134.76755 -24.40672,216.47702 -276.963241,44.568795 -185.703319,-6.366971"
       id="path3015"
       inkscape:connector-curvature="0">
      <desc
         id="desc3019">speed=10</desc>
      <title
         id="title3017">enemy</title>
    </path>
    <path
       style="fill:none;stroke:#ff0000;stroke-width:1;stroke-linecap:butt;stroke-linejoin:miter;stroke-opacity:1;stroke-miterlimit:4;stroke-dasharray:8,8;stroke-dashoffset:0"
       d="M -164.48009,-43.818004 95.504566,-44.879166 57.30274,-216.78738 l -197.37611,-42.44648 -47.75228,53.05809 z"
       id="path3789"
       inkscape:connector-curvature="0"
       sodipodi:nodetypes="cccccc">
      <title
         id="title3791">enemy</title>
    </path>
  </g>
</svg>
