<?xml version="1.0" encoding="UTF-8" standalone="no"?>
<!-- Created with Inkscape (http://www.inkscape.org/) -->

<svg
   xmlns:dc="http://purl.org/dc/elements/1.1/"
   xmlns:cc="http://creativecommons.org/ns#"
   xmlns:rdf="http://www.w3.org/1999/02/22-rdf-syntax-ns#"
   xmlns:svg="http://www.w3.org/2000/svg"
   xmlns="http://www.w3.org/2000/svg"
   xmlns:sodipodi="http://sodipodi.sourceforge.net/DTD/sodipodi-0.dtd"
   xmlns:inkscape="http://www.inkscape.org/namespaces/inkscape"
   width="744.09448819"
   height="1052.3622047"
   id="svg2"
   version="1.1"
   inkscape:version="0.48.2 r9819"
   sodipodi:docname="level3.svg">
  <defs
     id="defs4" />
  <sodipodi:namedview
     id="base"
     pagecolor="#000000"
     bordercolor="#666666"
     borderopacity="1.0"
     inkscape:pageopacity="0"
     inkscape:pageshadow="2"
     inkscape:zoom="1"
     inkscape:cx="-73.953715"
     inkscape:cy="1312.0634"
     inkscape:document-units="px"
     inkscape:current-layer="layer1"
     showgrid="false"
     inkscape:window-width="1600"
     inkscape:window-height="844"
     inkscape:window-x="0"
     inkscape:window-y="26"
     inkscape:window-maximized="1" />
  <metadata
     id="metadata7">
    <rdf:RDF>
      <cc:Work
         rdf:about="">
        <dc:format>image/svg+xml</dc:format>
        <dc:type
           rdf:resource="http://purl.org/dc/dcmitype/StillImage" />
        <dc:title></dc:title>
      </cc:Work>
    </rdf:RDF>
  </metadata>
  <g
     inkscape:label="Layer 1"
     inkscape:groupmode="layer"
     id="layer1">
    <path
       style="fill:none;stroke:#d45500;stroke-width:0.74434358px;stroke-linecap:butt;stroke-linejoin:miter;stroke-opacity:1"
       d="M -523.27745,-195.07045 -358.87747,-62.614824 -229.51731,-0.31053534 -125.80289,118.91482 -5.7455835,70.947605 148.59745,125.83752 l 166.80592,-446.52473 -55.68002,-128.17511 -98.17158,-82.44302 241.57143,-69.28571 50.14286,-308.14285 -145,-128.4286 -63.57143,-25.2857 -270.516227,-66.5055 -169.579593,15.3709 -171.84565,58.6365 -10.06139,52.6668 -34.27344,10.83458 -35.86245,60.08636 38.92551,68.63038 8.63978,158.42242 31.51862,92.77324 43.48341,19.94147 40.28572,42.71428 -0.85715,60.71429 -219.57142,116.57143 z"
       id="path3002"
       inkscape:connector-curvature="0"
       sodipodi:nodetypes="ccccccccccccccccccccccccccc" />
    <path
       style="fill:none;stroke:#008000;stroke-width:1px;stroke-linecap:butt;stroke-linejoin:miter;stroke-opacity:1"
       d="m -83.05195,-460.74763 -11.83793,23.46788 78.201829,15.93884 -16.960249,-40.40672 z"
       id="path2985"
       inkscape:connector-curvature="0"
       sodipodi:nodetypes="ccccc" />
    <text
       xml:space="preserve"
       style="font-size:15.19573402px;font-style:normal;font-weight:normal;line-height:125%;letter-spacing:0px;word-spacing:0px;fill:#000000;fill-opacity:1;stroke:none;font-family:Sans"
       x="-63.40564"
       y="-479.77481"
       id="text2987"
       sodipodi:linespacing="125%"><tspan
         sodipodi:role="line"
         id="tspan2989"
         x="-63.40564"
         y="-479.77481">pickup</tspan></text>
    <text
       xml:space="preserve"
       style="font-size:15.19573402px;font-style:normal;font-weight:normal;line-height:125%;letter-spacing:0px;word-spacing:0px;fill:#000000;fill-opacity:1;stroke:none;font-family:Sans"
       x="-1.6768303"
       y="-989.49213"
       id="text2987-8"
       sodipodi:linespacing="125%"><tspan
         sodipodi:role="line"
         id="tspan2989-8"
         x="-1.6768303"
         y="-989.49213">pickup</tspan></text>
    <path
       style="fill:none;stroke:#00ffff;stroke-width:1px;stroke-linecap:butt;stroke-linejoin:miter;stroke-opacity:1"
       d="m 6.3669709,71.848635 0,-32.89601 24.4067231,0 0,-8.4893 -61.547387,0 0,7.42813 26.5290457,0 1.0611618,30.7737 z"
       id="path2992"
       inkscape:connector-curvature="0">
      <desc
         id="desc3049">landingzone</desc>
    </path>
    <text
       xml:space="preserve"
       style="font-size:15.19573402px;font-style:normal;font-weight:normal;line-height:125%;letter-spacing:0px;word-spacing:0px;fill:#000000;fill-opacity:1;stroke:none;font-family:Sans"
       x="1.3240098"
       y="25.105045"
       id="text2987-0"
       sodipodi:linespacing="125%"><tspan
         sodipodi:role="line"
         id="tspan2989-9"
         x="1.3240098"
         y="25.105045">home</tspan></text>
    <path
       style="fill:none;stroke:#ff0000;stroke-width:1;stroke-linecap:butt;stroke-linejoin:miter;stroke-miterlimit:4;stroke-opacity:1;stroke-dasharray:8, 8;stroke-dashoffset:0"
       d="m -204.48009,-95.818004 345.98466,0.938838 33.39909,-178.454104 -73.60092,-217.45411 -264.37611,-80.44648 -189.75228,267.05809 z"
       id="path3789"
       inkscape:connector-curvature="0"
       sodipodi:nodetypes="ccccccc">
      <title
         id="title3791">enemy</title>
    </path>
    <path
       style="fill:none;stroke:#d45500;stroke-width:1px;stroke-linecap:butt;stroke-linejoin:miter;stroke-opacity:1"
       d="m -126.28119,-907.81146 97.324993,-44.23864 97.324995,60.32541 70.781812,123.86818 -42.629954,126.28119 -216.301636,-3.80476 -42.69546,-161.88903 0,-68.3688 z"
       id="path3008"
       inkscape:connector-curvature="0"
       sodipodi:nodetypes="ccccccccc" />
    <path
       style="fill:none;stroke:#d45500;stroke-width:1px;stroke-linecap:butt;stroke-linejoin:miter;stroke-opacity:1"
       d="m -124,-441.63782 -80,30 -23,99 6,88 129,47 62,16 112,-39 -1,-60 -21,-66 -33,-52 -41,-38 z"
       id="path3010"
       inkscape:connector-curvature="0" />
    <path
       style="fill:none;stroke:#008000;stroke-width:1px;stroke-linecap:butt;stroke-linejoin:miter;stroke-opacity:1"
       d="m -17.201825,-972.37176 -9.83793,19.46788 55.201829,34.93884 -11.960249,-55.40672 z"
       id="path2985-9"
       inkscape:connector-curvature="0"
       sodipodi:nodetypes="ccccc" />
  </g>
</svg>
